<?xml version="1.0" standalone="no"?>
<!DOCTYPE svg PUBLIC "-//W3C//DTD SVG 20010904//EN"
 "http://www.w3.org/TR/2001/REC-SVG-20010904/DTD/svg10.dtd">
<svg version="1.0" xmlns="http://www.w3.org/2000/svg"
 width="500.000000pt" height="500.000000pt" viewBox="0 0 500.000000 500.000000"
 preserveAspectRatio="xMidYMid meet">
<metadata>
Created by potrace 1.14, written by Peter Selinger 2001-2017
</metadata>
<g transform="translate(0.000000,500.000000) scale(0.100000,-0.100000)"
fill="#000000" stroke="none">
<path d="M2221 4989 c10 -6 5 -9 -16 -10 -33 0 -64 -4 -121 -14 -22 -4 -50 -8
-64 -10 -33 -4 -115 -22 -190 -40 -8 -2 -15 -4 -15 -5 0 -1 -12 -4 -27 -6 -39
-6 -249 -80 -333 -116 -100 -43 -307 -147 -326 -164 -8 -8 -19 -14 -23 -14 -4
0 -48 -28 -98 -62 -50 -35 -98 -67 -107 -73 -9 -5 -18 -12 -21 -15 -3 -3 -25
-21 -50 -40 -111 -86 -340 -320 -415 -424 -26 -37 -72 -98 -84 -112 -4 -5 -14
-21 -21 -35 -7 -13 -16 -26 -20 -29 -5 -4 -26 -40 -92 -155 -6 -11 -15 -27
-19 -35 -35 -64 -146 -320 -151 -346 -2 -10 -10 -25 -18 -32 -13 -12 -13 -13
0 -6 12 6 13 4 3 -7 -10 -10 -13 -172 -13 -738 0 -398 3 -721 7 -718 3 4 15
-17 25 -46 10 -28 22 -61 27 -72 5 -11 15 -37 22 -57 7 -21 17 -38 23 -38 5 0
7 -3 3 -6 -3 -3 6 -27 19 -54 13 -26 24 -53 24 -59 0 -6 5 -11 10 -11 6 0 10
-9 10 -19 0 -11 4 -22 9 -25 5 -3 18 -25 30 -48 23 -48 25 -51 95 -158 48 -72
113 -162 165 -225 38 -46 292 -297 329 -325 18 -14 48 -37 65 -53 26 -22 228
-159 302 -204 24 -15 228 -117 235 -118 3 0 15 -6 28 -13 12 -7 22 -10 22 -6
0 3 6 1 14 -5 10 -9 271 -106 271 -101 0 1 7 -1 15 -4 8 -2 29 -8 45 -12 17
-4 35 -8 40 -10 8 -2 82 -19 180 -40 11 -2 38 -6 60 -9 22 -2 61 -7 87 -10 45
-6 209 -16 236 -15 6 0 20 0 30 0 87 -1 337 6 337 9 0 1 23 4 50 6 92 7 228
28 318 51 12 3 29 7 37 9 8 2 15 4 15 5 0 1 8 3 18 5 45 9 203 60 208 68 3 5
8 8 10 7 8 -3 63 13 88 26 14 8 32 14 39 14 6 0 12 4 12 8 0 5 6 9 13 9 18 0
181 80 265 130 41 24 78 43 83 43 5 0 9 5 9 10 0 6 7 10 15 10 8 0 15 5 15 12
0 6 3 9 6 5 4 -3 12 -1 19 6 25 24 55 47 61 47 9 0 133 97 192 150 102 91 170
159 165 164 -4 3 1 6 10 6 8 0 17 4 19 9 3 8 96 116 131 153 9 10 17 21 17 26
0 4 12 21 28 37 30 34 126 176 172 257 40 70 110 215 110 228 0 5 4 10 10 10
5 0 9 3 8 8 0 4 2 16 7 27 27 70 54 143 60 163 3 12 10 22 16 22 5 0 9 295 9
736 0 481 -4 733 -10 729 -6 -3 -10 1 -10 10 0 8 -12 43 -26 78 -14 34 -27 67
-28 72 -2 6 -13 33 -26 60 -13 28 -24 57 -26 65 -2 8 -8 16 -13 18 -6 2 -11
12 -11 22 0 9 -7 23 -15 30 -9 7 -13 15 -10 18 3 3 1 10 -4 16 -8 10 -29 46
-65 111 -21 37 -51 80 -61 87 -5 4 -6 8 -2 8 7 0 -38 65 -73 107 -5 7 -10 16
-10 22 0 5 -3 11 -7 13 -5 2 -33 32 -63 68 -30 36 -76 87 -102 113 -26 27 -48
50 -48 53 0 2 -28 30 -61 61 -34 32 -76 72 -93 88 -18 17 -45 39 -60 50 -15
11 -42 32 -59 47 -18 15 -36 28 -40 28 -4 0 -20 11 -35 25 -15 14 -32 25 -39
25 -7 0 -13 4 -13 8 0 5 -15 16 -32 25 -18 10 -46 26 -63 37 -84 53 -333 180
-356 180 -5 0 -17 4 -27 9 -31 16 -66 29 -132 51 -36 12 -72 25 -80 28 -8 3
-19 6 -25 7 -5 2 -34 10 -64 19 -30 9 -57 14 -59 11 -3 -3 -10 -1 -17 5 -6 5
-27 12 -46 14 -19 3 -45 8 -59 11 -34 8 -79 16 -115 20 -79 9 -105 14 -124 25
-26 13 -592 13 -570 -1z"/>
</g>
</svg>
